<svg xmlns="http://www.w3.org/2000/svg" viewBox="0 0 17.97 17.97"><defs></defs><title>fb-footer-link</title><g id="Layer_2" data-name="Layer 2"><g id="Layer_1-2" data-name="Layer 1"><path id="footericonfb" class="cls-1" d="M17.22,0H.75A.75.75,0,0,0,0,.75V17.22A.75.75,0,0,0,.75,18h8.8V11.23H7.3V8.42H9.54V6.18a3.21,3.21,0,0,1,3.54-3.46,19.21,19.21,0,0,1,2.09.11V5.25H13.74c-1.13,0-1.39.53-1.39,1.32V8.42h2.81l-.56,2.81H12.35l0,6.74h4.82a.75.75,0,0,0,.75-.75V.75A.75.75,0,0,0,17.22,0Z"/></g></g></svg>