<svg id="Layer_1" data-name="Layer 1" xmlns="http://www.w3.org/2000/svg" viewBox="0 0 24.75 25.25"><defs><style>.cls-1{fill:#403c25;}</style></defs><title>subobj_link2</title><polygon class="cls-1" points="7.46 15.67 0.64 22.42 2.61 24.39 9.43 17.64 7.46 15.67"/><polygon class="cls-1" points="17.99 9.25 15.25 9.25 15.25 6.51 12.24 6.51 12.24 9.25 9.5 9.25 9.5 12.26 12.24 12.26 12.24 15 15.25 15 15.25 12.26 17.99 12.26 17.99 9.25"/><path class="cls-1" d="M13.81,21.11A10.1,10.1,0,1,1,23.91,11,10.12,10.12,0,0,1,13.81,21.11Zm0-17.84A7.74,7.74,0,1,0,21.54,11,7.74,7.74,0,0,0,13.81,3.27Z"/></svg>