<svg xmlns="http://www.w3.org/2000/svg" viewBox="0 0 390.97 391.94"><defs><style>.cls-1{fill:rgba(63, 60, 37, 0.6);}</style></defs><title>link_default</title><g id="Layer_2" data-name="Layer 2"><g id="Layer_1-2" data-name="Layer 1"><path class="cls-1" d="M112.56,389.84l-39.73,2.09L0,319.18l2.37-39.51,85-85.82,14.24-15.61,40.61-8.74L160,186.1,130.8,216l-6.06-.26L44.86,295S44,307.81,44,308l38.84,38.7,13.43-.32L176.12,267l-.32-6.42,29.52-29.72,17.22,16.7-9.88,42.19Z"/><path class="cls-1" d="M278.4,2.09,318.13,0,391,72.75l-2.37,39.51-85,85.82-14.24,15.61-40.61,8.74-17.76-16.59L260.16,176l6.06.26L346.1,97s.84-12.85.84-13.06L308.1,45.22l-13.43.32-79.83,79.36.32,6.42L185.64,161l-17.22-16.7,9.88-42.19Z"/><rect class="cls-1" x="96.04" y="175.63" width="198.8" height="41.04" transform="translate(-81.46 195.65) rotate(-45)"/></g></g></svg>