<svg xmlns="http://www.w3.org/2000/svg" viewBox="0 0 297.9 478.93"><defs><style>.cls-1{fill:#6D6D6D;}</style></defs><title>timeline_default</title><g id="Layer_2" data-name="Layer 2"><g id="Layer_1-2" data-name="Layer 1"><polygon class="cls-1" points="125.27 214.29 146.09 107.29 181.18 114.12 164 202.45 213.96 252.41 188.68 277.69 125.27 214.29"/><path class="cls-1" d="M147.92,478.73l-.19.19-90.3-90.3L82.7,363.34l48.37,48.37v-64l-2.64-.37a149,149,0,0,1,0-295.06l2.64-.37V0h35.75V51.89l2.64.37a149,149,0,0,1,0,295.06l-2.64.37v62l46.3-46.3,25.28,25.28-90.3,90.3Zm1-398.38A119.43,119.43,0,1,0,268.38,199.79,119.56,119.56,0,0,0,149,80.36Z"/></g></g></svg>